#!OML:ASF H:\GeneralSubjects\Female5\Project 1\Capture day 1\Session 1\Female5.ASF
:FULLY-SPECIFIED
:DEGREES
129
root -10.9095 15.7546 2.86419 160.424 -79.3292 -153.2
lowerback 5.90762 3.02333 3.19906
upperback -9.86952 4.47285 2.36121
thorax -14.0969 1.80157 0.0622824
lowerneck -18.8503 0.176276 1.59486
upperneck 30.157 0.257242 -3.40299
head 13.2969 -0.406538 -1.62221
rclavicle -2.05742e-014 -2.74323e-014
rhumerus -46.1135 19.8774 -87.7419
rradius 33.9069
rwrist -9.7919
rhand -24.178 -25.4139
rfingers 7.12502
rthumb 2.30541 -55.3812
lclavicle -2.05742e-014 -2.74323e-014
lhumerus -42.3172 5.0644 79.4042
lradius 31.4348
lwrist -1.70627
lhand -27.001 37.4573
lfingers 7.12502
lthumb -0.421023 67.4366
rfemur 9.22463 13.9059 39.7736
rtibia -9.24996
rfoot -24.0684 -24.1568
rtoes -3.33102
lfemur -32.4081 -12.6262 -12.2114
ltibia 22.6663
lfoot -16.8863 -2.50423
ltoes -56.9429
130
root -10.9432 15.7465 2.86526 160.291 -79.0907 -153.234
lowerback 5.93465 3.04706 3.34212
upperback -9.81701 4.52522 2.36873
thorax -14.0401 1.81386 -0.0185819
lowerneck -18.6946 0.213539 1.72012
upperneck 29.8285 0.30863 -3.49403
head 13.1279 -0.375209 -1.661
rclavicle -1.25731e-014 1.39149e-014
rhumerus -46.0391 20.0172 -87.6126
rradius 34.5954
rwrist -9.81215
rhand -23.8581 -25.4109
rfingers 7.12502
rthumb 2.61438 -55.3747
lclavicle -1.25731e-014 1.39149e-014
lhumerus -42.1419 4.70042 79.3978
lradius 32.5063
lwrist 0.434677
lhand -27.7992 38.3408
lfingers 7.12502
lthumb -1.19202 68.3172
rfemur 9.11061 12.4519 39.5311
rtibia -8.7397
rfoot -23.3695 -22.7525
rtoes -4.59791
lfemur -32.5002 -12.3906 -12.2082
ltibia 23.4656
lfoot -16.8211 -2.97844
ltoes -56.2266
131
root -10.9774 15.7379 2.86322 160.596 -78.7184 -153.685
lowerback 5.98275 3.12603 3.43981
upperback -9.78173 4.64607 2.35185
thorax -14.0171 1.86075 -0.114387
lowerneck -18.3521 0.199415 1.98627
upperneck 29.3198 0.298549 -3.76898
head 12.8449 -0.377622 -1.79936
rclavicle 2.22142e-014 1.86858e-014
rhumerus -45.9299 20.1965 -87.4932
rradius 35.5587
rwrist -9.86693
rhand -23.381 -26.0299
rfingers 7.12502
rthumb 3.07518 -55.9874
lclavicle 2.22142e-014 1.86858e-014
lhumerus -41.8019 4.19149 79.5204
lradius 33.4651
lwrist 2.34243
lhand -28.8189 38.7307
lfingers 7.12502
lthumb -2.17682 68.6993
rfemur 9.0649 11.8236 39.474
rtibia -8.15825
rfoot -23.1836 -21.8688
rtoes -5.21039
lfemur -32.5489 -12.0375 -12.2173
ltibia 24.2631
lfoot -16.8747 -3.40406
ltoes -55.5335
132
root -11.0143 15.7307 2.85644 161.179 -78.3138 -154.393
lowerback 5.98124 3.19916 3.39856
upperback -9.72346 4.74007 2.35155
thorax -13.9477 1.91265 -0.107805
lowerneck -18.2356 0.23505 2.16971
upperneck 28.9736 0.314669 -3.81466
head 12.6796 -0.348543 -1.83547
rclavicle 3.47873e-015 2.0276e-014
rhumerus -45.6222 20.6637 -87.411
rradius 36.6708
rwrist -9.92418
rhand -22.5673 -27.2322
rfingers 7.12502
rthumb 3.86094 -57.177
lclavicle 3.47873e-015 2.0276e-014
lhumerus -41.3431 3.72612 79.662
lradius 34.6415
lwrist 3.98735
lhand -29.5108 39.0398
lfingers 7.12502
lthumb -2.84505 69.0006
rfemur 9.18278 12.1042 39.6363
rtibia -7.66521
rfoot -23.6783 -21.5818
rtoes -4.62663
lfemur -32.5789 -12.6184 -11.6517
ltibia 25.0825
lfoot -17.882 -4.04222
ltoes -4.18116
133
root -11.0584 15.7267 2.8525 161.648 -78.0741 -154.993
lowerback 6.05248 3.21621 3.33849
upperback -9.7148 4.75995 2.34759
thorax -13.9866 1.92741 -0.0864007
lowerneck -18.2912 0.332563 2.17322
upperneck 28.8594 0.397957 -3.61308
head 12.6477 -0.280227 -1.74215
rclavicle 1.11816e-014 3.18055e-014
rhumerus -45.4576 21.3403 -87.4246
rradius 38.0095
rwrist -10.1929
rhand -21.8054 -28.1381
rfingers 7.12502
rthumb 4.59672 -58.0682
lclavicle 1.11816e-014 3.18055e-014
lhumerus -40.9001 2.98912 79.8851
lradius 36.0829
lwrist 5.8672
lhand -29.982 39.5409
lfingers 7.12502
lthumb -3.30009 69.4951
rfemur 9.31321 11.8793 39.603
rtibia -7.26403
rfoot -23.9711 -21.0086
rtoes -4.5594
lfemur -32.8171 -12.3669 -11.8406
ltibia 26.3353
lfoot -18.0988 -4.58631
ltoes -5.14082
134
root -11.1065 15.725 2.85407 161.583 -77.9546 -155.014
lowerback 6.22027 3.23997 3.5074
upperback -9.80811 4.81808 2.28642
thorax -14.1847 1.92532 -0.267238
lowerneck -18.1194 0.36688 2.22038
upperneck 28.5859 0.423935 -3.55922
head 12.5021 -0.250605 -1.71727
rclavicle -3.43401e-014 -1.07344e-014
rhumerus -45.4285 21.7461 -87.3754
rradius 39.6031
rwrist -10.5609
rhand -21.2078 -28.2931
rfingers 7.12502
rthumb 5.17372 -58.2099
lclavicle -3.43401e-014 -1.07344e-014
lhumerus -40.3232 1.80008 80.2152
lradius 37.4148
lwrist 8.13942
lhand -30.4752 40.3439
lfingers 7.12502
lthumb -3.77631 70.2901
rfemur 9.13649 10.1918 39.1841
rtibia -6.66796
rfoot -23.7101 -19.3172
rtoes -5.56008
lfemur -33.4097 -11.9995 -12.0912
ltibia 28.0277
lfoot -18.6334 -5.09893
ltoes -7.81009
135
root -11.1577 15.7219 2.85654 161.079 -77.8832 -154.56
lowerback 6.32549 3.2293 3.75829
upperback -9.86572 4.8387 2.25147
thorax -14.2971 1.90074 -0.454
lowerneck -17.8889 0.398633 2.36793
upperneck 28.0903 0.482476 -3.70617
head 12.2586 -0.218336 -1.77559
rclavicle -5.36719e-015 4.17448e-015
rhumerus -45.1081 22.4592 -87.2814
rradius 41.3309
rwrist -11.4508
rhand -20.988 -28.1439
rfingers 7.12502
rthumb 5.38596 -58.0555
lclavicle -5.36719e-015 4.17448e-015
lhumerus -39.5274 0.690615 80.4958
lradius 38.8018
lwrist 10.446
lhand -30.9046 40.4336
lfingers 7.12502
lthumb -4.19104 70.3722
rfemur 9.00552 8.14116 38.7176
rtibia -6.27335
rfoot -23.4072 -17.2748
rtoes -5.91788
lfemur -34.3419 -11.2457 -12.4365
ltibia 30.176
lfoot -19.2877 -5.41331
ltoes -11.5183
136
root -11.2111 15.7175 2.85866 160.603 -77.8988 -154.122
lowerback 6.3567 3.12543 3.86993
upperback -9.84839 4.7179 2.29833
thorax -14.2955 1.83477 -0.443631
lowerneck -17.8058 0.468571 2.4268
upperneck 27.5684 0.615345 -3.82173
head 12.0407 -0.157044 -1.7954
rclavicle -5.22307e-014 -3.47873e-014
rhumerus -44.375 23.7401 -87.0893
rradius 43.069
rwrist -12.7247
rhand -21.0823 -27.6949
rfingers 7.12502
rthumb 5.29484 -57.6087
lclavicle -5.22307e-014 -3.47873e-014
lhumerus -38.4249 -0.0251536 80.681
lradius 40.2508
lwrist 12.4109
lhand -31.0731 40.4479
lfingers 7.12502
lthumb -4.35377 70.3831
rfemur 9.00287 6.73796 38.3972
rtibia -5.9695
rfoot -23.4373 -15.813
rtoes -5.85305
lfemur -35.4169 -10.2989 -12.9544
ltibia 32.4391
lfoot -20.2545 -5.81861
ltoes -15.1201
137
root -11.2664 15.7135 2.85903 160.387 -77.936 -153.912
lowerback 6.33441 3.03671 3.87098
upperback -9.81215 4.60119 2.35903
thorax -14.2468 1.78552 -0.354789
lowerneck -17.8219 0.501709 2.33748
upperneck 27.1348 0.691888 -3.78123
head 11.8767 -0.117017 -1.74269
rclavicle -3.09607e-014 -6.48038e-014
rhumerus -43.3192 24.8297 -86.5353
rradius 44.8744
rwrist -13.7163
rhand -20.7135 -26.8994
rfingers 7.12502
rthumb 5.65101 -56.8041
lclavicle -3.09607e-014 -6.48038e-014
lhumerus -36.8997 -0.771144 80.9343
lradius 41.5207
lwrist 14.0238
lhand -31.0341 40.5369
lfingers 7.12502
lthumb -4.31603 70.4729
rfemur 9.05242 5.89188 38.1823
rtibia -5.69604
rfoot -23.5589 -15.0351
rtoes -6.73065
lfemur -36.4263 -9.32126 -13.5656
ltibia 34.4244
lfoot -21.7919 -6.52733
ltoes -18.5265
138
root -11.3271 15.7071 2.85772 159.81 -77.9013 -153.322
lowerback 6.35343 2.99332 3.91408
upperback -9.78352 4.55736 2.44567
thorax -14.2311 1.76663 -0.275769
lowerneck -17.7675 0.499327 2.27114
upperneck 26.5729 0.719499 -3.76699
head 11.6486 -0.0970844 -1.70858
rclavicle -5.91384e-015 -3.53837e-014
rhumerus -42.0548 25.6691 -85.7131
rradius 46.9213
rwrist -14.6007
rhand -20.2404 -25.8552
rfingers 7.12502
rthumb 6.10768 -55.7472
lclavicle -5.91384e-015 -3.53837e-014
lhumerus -35.2424 -1.73975 81.3069
lradius 42.9161
lwrist 15.5519
lhand -31.2388 40.8011
lfingers 7.12502
lthumb -4.51375 70.733
rfemur 9.21429 5.76126 38.2945
rtibia -5.48886
rfoot -23.9837 -14.8578
rtoes -7.09698
lfemur -37.2986 -8.53441 -13.9375
ltibia 35.8722
lfoot -23.4718 -7.32824
ltoes -20.4804
